<svg width="170" height="66" viewBox="0 0 170 66" fill="none" xmlns="http://www.w3.org/2000/svg">
<path d="M5.58 33L6.552 28.572H15.12L16.092 33H21.06L15.552 8.52H6.12L0.612 33H5.58ZM11.7 12.624L14.184 24.252H7.488L9.972 12.624H11.7ZM28.7123 19.536V33H23.8883V15H28.6763V16.008C30.2843 15.048 31.7843 14.568 33.1763 14.568C34.3763 14.568 35.3723 14.748 36.1643 15.108C36.9803 15.444 37.6283 15.972 38.1083 16.692C38.6123 17.412 38.9723 18.312 39.1883 19.392C39.4043 20.472 39.5123 21.756 39.5123 23.244V33H34.6883V23.388C34.6883 21.852 34.5083 20.724 34.1483 20.004C33.7883 19.26 33.0683 18.888 31.9883 18.888C31.0283 18.888 30.0803 19.056 29.1443 19.392L28.7123 19.536ZM48.6107 33V15H43.7867V33H48.6107ZM48.6107 12.696V7.8H43.7867V12.696H48.6107ZM57.8919 19.536V33H53.0679V15H57.8559V16.008C59.4879 15.048 60.9039 14.568 62.1039 14.568C64.0479 14.568 65.5479 15.132 66.6039 16.26C68.8119 15.132 70.8279 14.568 72.6519 14.568C73.8519 14.568 74.8479 14.736 75.6399 15.072C76.4559 15.408 77.1039 15.936 77.5839 16.656C78.0879 17.352 78.4479 18.252 78.6639 19.356C78.8799 20.436 78.9879 21.732 78.9879 23.244V33H74.1639V23.388C74.1639 21.852 73.9959 20.724 73.6599 20.004C73.3239 19.26 72.6519 18.888 71.6439 18.888C70.9239 18.888 69.9879 19.056 68.8359 19.392L68.2959 19.572C68.3439 20.484 68.3799 21.276 68.4039 21.948C68.4279 22.62 68.4399 23.196 68.4399 23.676V33H63.6159V23.748C63.6159 22.86 63.5799 22.104 63.5079 21.48C63.4599 20.856 63.3399 20.352 63.1479 19.968C62.9799 19.584 62.7279 19.308 62.3919 19.14C62.0559 18.972 61.6239 18.888 61.0959 18.888C60.1839 18.888 59.2599 19.056 58.3239 19.392L57.8919 19.536ZM97.8112 26.052H87.2272C87.2512 27.156 87.5392 27.96 88.0912 28.464C88.6432 28.944 89.4592 29.184 90.5392 29.184C92.7712 29.184 94.7632 29.112 96.5152 28.968L97.5232 28.86L97.5952 32.424C94.8832 33.096 92.3872 33.432 90.1072 33.432C87.3952 33.432 85.4272 32.712 84.2032 31.272C82.9792 29.832 82.3672 27.492 82.3672 24.252C82.3672 17.796 85.0192 14.568 90.3232 14.568C95.5552 14.568 98.1712 17.28 98.1712 22.704L97.8112 26.052ZM87.1912 22.38H93.4192C93.4192 20.94 93.1912 19.944 92.7352 19.392C92.3032 18.816 91.5112 18.528 90.3592 18.528C89.2072 18.528 88.3912 18.828 87.9112 19.428C87.4552 20.004 87.2152 20.988 87.1912 22.38Z" fill="#2D3748"/>
<path d="M122.68 41.744V46.736C122.712 47.12 122.776 47.392 122.872 47.552C122.968 47.696 123.168 47.8 123.472 47.864L123.376 50.288C122.56 50.288 121.904 50.232 121.408 50.12C120.928 50.008 120.44 49.784 119.944 49.448C118.776 50.008 117.6 50.288 116.416 50.288C113.936 50.288 112.696 48.976 112.696 46.352C112.696 45.072 113.04 44.168 113.728 43.64C114.416 43.096 115.472 42.776 116.896 42.68L119.464 42.488V41.744C119.464 41.248 119.352 40.912 119.128 40.736C118.904 40.544 118.544 40.448 118.048 40.448L113.536 40.64L113.44 38.408C115.168 37.944 116.8 37.712 118.336 37.712C119.888 37.712 121 38.032 121.672 38.672C122.344 39.312 122.68 40.336 122.68 41.744ZM119.464 44.72L117.28 44.912C116.384 44.992 115.936 45.472 115.936 46.352C115.936 47.232 116.328 47.672 117.112 47.672C117.72 47.672 118.384 47.576 119.104 47.384L119.464 47.288V44.72ZM127.762 41.024V50H124.546V38H127.738V38.672C128.81 38.032 129.81 37.712 130.738 37.712C131.538 37.712 132.202 37.832 132.73 38.072C133.274 38.296 133.706 38.648 134.026 39.128C134.362 39.608 134.602 40.208 134.746 40.928C134.89 41.648 134.962 42.504 134.962 43.496V50H131.746V43.592C131.746 42.568 131.626 41.816 131.386 41.336C131.146 40.84 130.666 40.592 129.946 40.592C129.306 40.592 128.674 40.704 128.05 40.928L127.762 41.024ZM145.275 38.336L145.227 41C144.219 40.872 143.371 40.776 142.683 40.712C142.011 40.648 141.475 40.616 141.075 40.616C140.275 40.616 139.763 40.688 139.539 40.832C139.299 40.976 139.179 41.2 139.179 41.504C139.179 41.808 139.339 42.024 139.659 42.152C139.819 42.216 140.091 42.296 140.475 42.392C140.875 42.472 141.403 42.568 142.059 42.68C142.699 42.792 143.243 42.944 143.691 43.136C144.139 43.312 144.507 43.544 144.795 43.832C145.083 44.12 145.291 44.472 145.419 44.888C145.547 45.304 145.611 45.808 145.611 46.4C145.611 48.992 144.003 50.288 140.787 50.288C139.747 50.288 138.467 50.144 136.947 49.856L136.179 49.712L136.275 47.024C137.283 47.152 138.123 47.248 138.795 47.312C139.483 47.376 140.027 47.408 140.427 47.408C141.211 47.408 141.739 47.328 142.011 47.168C142.283 47.024 142.419 46.8 142.419 46.496C142.419 46.192 142.275 45.968 141.987 45.824C141.699 45.696 140.931 45.52 139.683 45.296C139.059 45.2 138.515 45.072 138.051 44.912C137.587 44.736 137.203 44.512 136.899 44.24C136.595 43.952 136.363 43.6 136.203 43.184C136.059 42.752 135.987 42.216 135.987 41.576C135.987 40.936 136.099 40.376 136.323 39.896C136.563 39.416 136.883 39.016 137.283 38.696C137.699 38.376 138.187 38.136 138.747 37.976C139.323 37.816 139.947 37.736 140.619 37.736C141.083 37.736 141.635 37.776 142.275 37.856C142.931 37.92 143.667 38.032 144.483 38.192L145.275 38.336Z" fill="#4A5568"/>
<path d="M144.576 14.568C147.552 14.568 149.676 15.396 150.948 17.052C152.22 18.684 152.856 20.988 152.856 23.964C152.856 30.276 150.096 33.432 144.576 33.432C139.056 33.432 136.296 30.276 136.296 23.964C136.296 22.524 136.44 21.228 136.728 20.076C137.016 18.924 137.484 17.94 138.132 17.124C138.78 16.308 139.632 15.684 140.688 15.252C141.744 14.796 143.04 14.568 144.576 14.568ZM144.576 29.328C145.872 29.328 146.76 28.908 147.24 28.068C147.72 27.204 147.96 25.836 147.96 23.964C147.96 22.092 147.72 20.748 147.24 19.932C146.76 19.092 145.872 18.672 144.576 18.672C143.28 18.672 142.392 19.092 141.912 19.932C141.432 20.748 141.192 22.092 141.192 23.964C141.192 24.588 141.216 25.224 141.264 25.872C141.336 26.496 141.48 27.072 141.696 27.6C141.936 28.104 142.272 28.524 142.704 28.86C143.16 29.172 143.784 29.328 144.576 29.328ZM159.416 33H154.592V15H159.38V16.908C161.444 15.708 163.364 14.928 165.14 14.568V19.428C164.156 19.62 163.244 19.824 162.404 20.04C161.588 20.256 160.832 20.472 160.136 20.688L159.416 20.94V33Z" fill="#2D3748"/>
<path d="M15.92 42.52V50H13.24V40H15.9V40.56C16.7933 40.0267 17.6267 39.76 18.4 39.76C19.0667 39.76 19.62 39.86 20.06 40.06C20.5133 40.2467 20.8733 40.54 21.14 40.94C21.42 41.34 21.62 41.84 21.74 42.44C21.86 43.04 21.92 43.7533 21.92 44.58V50H19.24V44.66C19.24 43.8067 19.14 43.18 18.94 42.78C18.74 42.3667 18.34 42.16 17.74 42.16C17.2067 42.16 16.68 42.2533 16.16 42.44L15.92 42.52ZM27.3747 39.76C29.028 39.76 30.208 40.22 30.9147 41.14C31.6214 42.0467 31.9747 43.3267 31.9747 44.98C31.9747 48.4867 30.4414 50.24 27.3747 50.24C24.308 50.24 22.7747 48.4867 22.7747 44.98C22.7747 44.18 22.8547 43.46 23.0147 42.82C23.1747 42.18 23.4347 41.6333 23.7947 41.18C24.1547 40.7267 24.628 40.38 25.2147 40.14C25.8014 39.8867 26.5214 39.76 27.3747 39.76ZM27.3747 47.96C28.0947 47.96 28.588 47.7267 28.8547 47.26C29.1214 46.78 29.2547 46.02 29.2547 44.98C29.2547 43.94 29.1214 43.1933 28.8547 42.74C28.588 42.2733 28.0947 42.04 27.3747 42.04C26.6547 42.04 26.1614 42.2733 25.8947 42.74C25.628 43.1933 25.4947 43.94 25.4947 44.98C25.4947 45.3267 25.508 45.68 25.5347 46.04C25.5747 46.3867 25.6547 46.7067 25.7747 47C25.908 47.28 26.0947 47.5133 26.3347 47.7C26.588 47.8733 26.9347 47.96 27.3747 47.96ZM35.6192 42.52V50H32.9392V40H35.5992V40.56C36.4926 40.0267 37.3259 39.76 38.0992 39.76C38.7659 39.76 39.3192 39.86 39.7592 40.06C40.2126 40.2467 40.5726 40.54 40.8392 40.94C41.1192 41.34 41.3192 41.84 41.4392 42.44C41.5592 43.04 41.6192 43.7533 41.6192 44.58V50H38.9392V44.66C38.9392 43.8067 38.8392 43.18 38.6392 42.78C38.4392 42.3667 38.0392 42.16 37.4392 42.16C36.9059 42.16 36.3792 42.2533 35.8592 42.44L35.6192 42.52Z" fill="#C53030"/>
<path d="M48.7939 45.9V43.46H42.8739V45.9H48.7939ZM57.818 43.12V47.28C57.8446 47.6 57.898 47.8267 57.978 47.96C58.058 48.08 58.2246 48.1667 58.478 48.22L58.398 50.24C57.718 50.24 57.1713 50.1933 56.758 50.1C56.358 50.0067 55.9513 49.82 55.538 49.54C54.5646 50.0067 53.5846 50.24 52.598 50.24C50.5313 50.24 49.498 49.1467 49.498 46.96C49.498 45.8933 49.7846 45.14 50.358 44.7C50.9313 44.2467 51.8113 43.98 52.998 43.9L55.138 43.74V43.12C55.138 42.7067 55.0446 42.4267 54.858 42.28C54.6713 42.12 54.3713 42.04 53.958 42.04L50.198 42.2L50.118 40.34C51.558 39.9533 52.918 39.76 54.198 39.76C55.4913 39.76 56.418 40.0267 56.978 40.56C57.538 41.0933 57.818 41.9467 57.818 43.12ZM55.138 45.6L53.318 45.76C52.5713 45.8267 52.198 46.2267 52.198 46.96C52.198 47.6933 52.5246 48.06 53.178 48.06C53.6846 48.06 54.238 47.98 54.838 47.82L55.138 47.74V45.6ZM62.0528 42.52V50H59.3728V40H62.0328V40.56C62.9261 40.0267 63.7595 39.76 64.5328 39.76C65.1995 39.76 65.7528 39.86 66.1928 40.06C66.6461 40.2467 67.0061 40.54 67.2728 40.94C67.5528 41.34 67.7528 41.84 67.8728 42.44C67.9928 43.04 68.0528 43.7533 68.0528 44.58V50H65.3728V44.66C65.3728 43.8067 65.2728 43.18 65.0728 42.78C64.8728 42.3667 64.4728 42.16 63.8728 42.16C63.3395 42.16 62.8128 42.2533 62.2928 42.44L62.0528 42.52ZM72.1075 50V40H69.4275V50H72.1075ZM72.1075 38.72V36H69.4275V38.72H72.1075ZM76.2638 42.52V50H73.5838V40H76.2438V40.56C77.1504 40.0267 77.9371 39.76 78.6038 39.76C79.6838 39.76 80.5171 40.0733 81.1038 40.7C82.3304 40.0733 83.4504 39.76 84.4638 39.76C85.1304 39.76 85.6838 39.8533 86.1238 40.04C86.5771 40.2267 86.9371 40.52 87.2038 40.92C87.4838 41.3067 87.6838 41.8067 87.8038 42.42C87.9238 43.02 87.9838 43.74 87.9838 44.58V50H85.3038V44.66C85.3038 43.8067 85.2104 43.18 85.0238 42.78C84.8371 42.3667 84.4638 42.16 83.9038 42.16C83.5038 42.16 82.9838 42.2533 82.3438 42.44L82.0438 42.54C82.0704 43.0467 82.0904 43.4867 82.1038 43.86C82.1171 44.2333 82.1238 44.5533 82.1238 44.82V50H79.4438V44.86C79.4438 44.3667 79.4238 43.9467 79.3838 43.6C79.3571 43.2533 79.2904 42.9733 79.1838 42.76C79.0904 42.5467 78.9504 42.3933 78.7638 42.3C78.5771 42.2067 78.3371 42.16 78.0438 42.16C77.5371 42.16 77.0238 42.2533 76.5038 42.44L76.2638 42.52ZM97.4411 46.14H91.5611C91.5744 46.7533 91.7344 47.2 92.0411 47.48C92.3478 47.7467 92.8011 47.88 93.4011 47.88C94.6411 47.88 95.7478 47.84 96.7211 47.76L97.2811 47.7L97.3211 49.68C95.8144 50.0533 94.4278 50.24 93.1611 50.24C91.6544 50.24 90.5611 49.84 89.8811 49.04C89.2011 48.24 88.8611 46.94 88.8611 45.14C88.8611 41.5533 90.3344 39.76 93.2811 39.76C96.1878 39.76 97.6411 41.2667 97.6411 44.28L97.4411 46.14ZM91.5411 44.1H95.0011C95.0011 43.3 94.8744 42.7467 94.6211 42.44C94.3811 42.12 93.9411 41.96 93.3011 41.96C92.6611 41.96 92.2078 42.1267 91.9411 42.46C91.6878 42.78 91.5544 43.3267 91.5411 44.1Z" fill="#4A5568"/>
<path d="M105 7C104.151 6.96378 114.254 2.81686 112 7C109.746 11.1831 110.294 42.4257 112 64C109.742 62.5132 103.156 68.0395 105 64C106.844 59.9605 105.849 7.03622 105 7Z" fill="#C53030"/>
<path d="M111 6.99994C121.004 8.00679 139 6.99988 142 6.99994C145 7 140.969 10.5264 142 12.9999C127.965 11.4611 121.639 11.8288 111 12.9999V6.99994Z" fill="#C53030"/>
<path d="M110 30C117.884 30.789 134 27 132 30C130 33 134.5 35 132 36C129.5 37 118.225 34.9231 110 36V30Z" fill="#C53030"/>
<path d="M116.342 35.1045L106.826 29.3617L119.722 7.99092C119.722 7.99092 141.689 10.9165 129.238 13.7338C116.788 16.551 108.984 21.7082 116.342 35.1045Z" fill="#C53030"/>
<rect x="110" y="11" width="7" height="5" fill="#C53030"/>
<rect x="110" y="15" width="5" height="5" fill="#C53030"/>
<rect x="110" y="19" width="3" height="5" fill="#C53030"/>
<circle cx="124.5" cy="22.5" r="3.5" fill="#C53030"/>
<path d="M131.106 9.97563C130.933 10.0342 138.769 10.0469 139.07 9.97563C139.372 9.90441 140.487 12.2751 141 12.7356C141.513 13.1961 138.791 11.8409 131.106 13.2927C123.421 14.7444 131.106 9.97563 131.106 9.97563Z" fill="#C53030"/>
</svg>
