<svg width="173" height="67" viewBox="0 0 173 67" fill="none" xmlns="http://www.w3.org/2000/svg">
<path d="M5.58 34L6.552 29.572H15.12L16.092 34H21.06L15.552 9.52H6.12L0.612 34H5.58ZM11.7 13.624L14.184 25.252H7.488L9.972 13.624H11.7ZM30.5122 20.536V34H25.6882V16H30.4762V17.008C32.0842 16.048 33.5843 15.568 34.9763 15.568C36.1762 15.568 37.1722 15.748 37.9643 16.108C38.7802 16.444 39.4282 16.972 39.9082 17.692C40.4122 18.412 40.7722 19.312 40.9882 20.392C41.2042 21.472 41.3123 22.756 41.3123 24.244V34H36.4882V24.388C36.4882 22.852 36.3082 21.724 35.9482 21.004C35.5882 20.26 34.8682 19.888 33.7882 19.888C32.8282 19.888 31.8802 20.056 30.9442 20.392L30.5122 20.536ZM52.2107 34V16H47.3867V34H52.2107ZM52.2107 13.696V8.8H47.3867V13.696H52.2107ZM63.2919 20.536V34H58.4679V16H63.2559V17.008C64.8879 16.048 66.3039 15.568 67.5039 15.568C69.4479 15.568 70.9479 16.132 72.0039 17.26C74.2119 16.132 76.2279 15.568 78.0519 15.568C79.2519 15.568 80.2479 15.736 81.0399 16.072C81.8559 16.408 82.5039 16.936 82.9839 17.656C83.4879 18.352 83.8479 19.252 84.0639 20.356C84.2799 21.436 84.3879 22.732 84.3879 24.244V34H79.5639V24.388C79.5639 22.852 79.3959 21.724 79.0599 21.004C78.7239 20.26 78.0519 19.888 77.0439 19.888C76.3239 19.888 75.3879 20.056 74.2359 20.392L73.6959 20.572C73.7439 21.484 73.7799 22.276 73.8039 22.948C73.8279 23.62 73.8399 24.196 73.8399 24.676V34H69.0159V24.748C69.0159 23.86 68.9799 23.104 68.9079 22.48C68.8599 21.856 68.7399 21.352 68.5479 20.968C68.3799 20.584 68.1279 20.308 67.7919 20.14C67.4559 19.972 67.0239 19.888 66.4959 19.888C65.5839 19.888 64.6599 20.056 63.7239 20.392L63.2919 20.536ZM105.011 27.052H94.4272C94.4512 28.156 94.7392 28.96 95.2912 29.464C95.8432 29.944 96.6592 30.184 97.7392 30.184C99.9712 30.184 101.963 30.112 103.715 29.968L104.723 29.86L104.795 33.424C102.083 34.096 99.5872 34.432 97.3072 34.432C94.5952 34.432 92.6272 33.712 91.4032 32.272C90.1792 30.832 89.5672 28.492 89.5672 25.252C89.5672 18.796 92.2192 15.568 97.5232 15.568C102.755 15.568 105.371 18.28 105.371 23.704L105.011 27.052ZM94.3912 23.38H100.619C100.619 21.94 100.391 20.944 99.9352 20.392C99.5032 19.816 98.7112 19.528 97.5592 19.528C96.4072 19.528 95.5912 19.828 95.1112 20.428C94.6552 21.004 94.4152 21.988 94.3912 23.38Z" fill="#2D3748"/>
<path d="M121.16 51.24C120.312 51.24 119.536 51.08 118.832 50.76C118.144 50.424 117.6 49.976 117.2 49.416C116.816 48.84 116.624 48.208 116.624 47.52C116.624 46.416 117.072 45.528 117.968 44.856C118.88 44.184 120.128 43.72 121.712 43.464L124.712 43.008V42.672C124.712 42.064 124.584 41.616 124.328 41.328C124.072 41.04 123.64 40.896 123.032 40.896C122.664 40.896 122.36 40.96 122.12 41.088C121.88 41.216 121.632 41.392 121.376 41.616C121.152 41.808 120.984 41.936 120.872 42C120.824 42.128 120.736 42.192 120.608 42.192H117.992C117.832 42.192 117.696 42.144 117.584 42.048C117.488 41.936 117.448 41.808 117.464 41.664C117.48 41.232 117.688 40.752 118.088 40.224C118.504 39.696 119.128 39.24 119.96 38.856C120.808 38.472 121.848 38.28 123.08 38.28C125.048 38.28 126.504 38.72 127.448 39.6C128.392 40.464 128.864 41.632 128.864 43.104V50.4C128.864 50.56 128.808 50.704 128.696 50.832C128.584 50.944 128.44 51 128.264 51H125.48C125.32 51 125.176 50.944 125.048 50.832C124.936 50.704 124.88 50.56 124.88 50.4V49.56C124.528 50.056 124.032 50.464 123.392 50.784C122.768 51.088 122.024 51.24 121.16 51.24ZM122.288 48.504C123.024 48.504 123.616 48.264 124.064 47.784C124.528 47.304 124.76 46.6 124.76 45.672V45.336L122.72 45.696C121.28 45.952 120.56 46.456 120.56 47.208C120.56 47.608 120.728 47.928 121.064 48.168C121.4 48.392 121.808 48.504 122.288 48.504Z" fill="#4A5568"/>
<path d="M130.16 51C130 51 129.864 50.944 129.752 50.832C129.64 50.72 129.584 50.584 129.584 50.424V39.096C129.584 38.936 129.64 38.8 129.752 38.688C129.864 38.576 130 38.52 130.16 38.52H132.128C132.288 38.52 132.424 38.576 132.536 38.688C132.648 38.8 132.704 38.936 132.704 39.096V40.08C133.648 38.88 134.984 38.28 136.712 38.28C138.184 38.28 139.352 38.768 140.216 39.744C141.08 40.704 141.512 42.016 141.512 43.68V50.424C141.512 50.584 141.456 50.72 141.344 50.832C141.248 50.944 141.112 51 140.936 51H138.824C138.664 51 138.528 50.944 138.416 50.832C138.304 50.72 138.248 50.584 138.248 50.424V43.824C138.248 42.88 138.016 42.152 137.552 41.64C137.104 41.112 136.448 40.848 135.584 40.848C134.736 40.848 134.064 41.112 133.568 41.64C133.088 42.168 132.848 42.896 132.848 43.824V50.424C132.848 50.584 132.792 50.72 132.68 50.832C132.584 50.944 132.448 51 132.272 51H130.16Z" fill="#4A5568"/>
<path d="M147.98 34.36C145.004 34.36 142.712 33.652 141.104 32.236C139.496 30.82 138.62 28.828 138.476 26.26C138.452 25.948 138.44 25.408 138.44 24.64C138.44 23.872 138.452 23.332 138.476 23.02C138.62 20.476 139.52 18.496 141.176 17.08C142.832 15.64 145.1 14.92 147.98 14.92C150.884 14.92 153.164 15.64 154.82 17.08C156.476 18.496 157.376 20.476 157.52 23.02C157.544 23.332 157.556 23.872 157.556 24.64C157.556 25.408 157.544 25.948 157.52 26.26C157.376 28.828 156.5 30.82 154.892 32.236C153.284 33.652 150.98 34.36 147.98 34.36ZM147.98 29.968C149.036 29.968 149.816 29.656 150.32 29.032C150.824 28.384 151.112 27.4 151.184 26.08C151.208 25.84 151.22 25.36 151.22 24.64C151.22 23.92 151.208 23.44 151.184 23.2C151.112 21.904 150.812 20.932 150.284 20.284C149.78 19.636 149.012 19.312 147.98 19.312C145.988 19.312 144.932 20.608 144.812 23.2L144.776 24.64L144.812 26.08C144.86 27.4 145.136 28.384 145.64 29.032C146.168 29.656 146.948 29.968 147.98 29.968Z" fill="#2D3748"/>
<path d="M160.024 34C159.76 34 159.544 33.916 159.376 33.748C159.208 33.58 159.124 33.364 159.124 33.1V16.18C159.124 15.916 159.208 15.7 159.376 15.532C159.544 15.364 159.76 15.28 160.024 15.28H164.164C164.428 15.28 164.644 15.376 164.812 15.568C165.004 15.736 165.1 15.94 165.1 16.18V17.62C166.42 16.06 168.196 15.28 170.428 15.28H172.012C172.276 15.28 172.492 15.364 172.66 15.532C172.828 15.7 172.912 15.916 172.912 16.18V19.888C172.912 20.128 172.828 20.344 172.66 20.536C172.492 20.704 172.276 20.788 172.012 20.788H168.52C167.536 20.788 166.768 21.064 166.216 21.616C165.688 22.144 165.424 22.9 165.424 23.884V33.1C165.424 33.364 165.328 33.58 165.136 33.748C164.968 33.916 164.752 34 164.488 34H160.024Z" fill="#2D3748"/>
<path d="M148.552 51.24C147.256 51.24 146.168 51.056 145.288 50.688C144.424 50.32 143.784 49.88 143.368 49.368C142.952 48.856 142.744 48.4 142.744 48C142.744 47.84 142.8 47.712 142.912 47.616C143.04 47.504 143.176 47.448 143.32 47.448H146.056C146.152 47.448 146.24 47.488 146.32 47.568C146.512 47.696 146.656 47.8 146.752 47.88C147.104 48.136 147.408 48.328 147.664 48.456C147.936 48.568 148.264 48.624 148.648 48.624C149.112 48.624 149.488 48.536 149.776 48.36C150.08 48.168 150.232 47.904 150.232 47.568C150.232 47.296 150.152 47.08 149.992 46.92C149.848 46.76 149.56 46.608 149.128 46.464C148.696 46.304 148.04 46.136 147.16 45.96C145.832 45.688 144.808 45.248 144.088 44.64C143.384 44.016 143.032 43.184 143.032 42.144C143.032 41.488 143.24 40.864 143.656 40.272C144.072 39.68 144.688 39.2 145.504 38.832C146.336 38.464 147.32 38.28 148.456 38.28C149.592 38.28 150.584 38.456 151.432 38.808C152.28 39.16 152.92 39.592 153.352 40.104C153.8 40.6 154.024 41.056 154.024 41.472C154.024 41.616 153.968 41.744 153.856 41.856C153.76 41.968 153.64 42.024 153.496 42.024H151C150.872 42.024 150.752 41.984 150.64 41.904C150.432 41.792 150.248 41.672 150.088 41.544C149.816 41.336 149.56 41.176 149.32 41.064C149.08 40.952 148.784 40.896 148.432 40.896C148.016 40.896 147.68 40.992 147.424 41.184C147.184 41.376 147.064 41.624 147.064 41.928C147.064 42.168 147.128 42.368 147.256 42.528C147.4 42.688 147.688 42.848 148.12 43.008C148.568 43.152 149.224 43.304 150.088 43.464C151.64 43.736 152.768 44.216 153.472 44.904C154.192 45.592 154.552 46.4 154.552 47.328C154.552 48.512 154.024 49.464 152.968 50.184C151.912 50.888 150.44 51.24 148.552 51.24Z" fill="#4A5568"/>
<path d="M9.92 43.52V51H7.24V41H9.9V41.56C10.7933 41.0267 11.6267 40.76 12.4 40.76C13.0667 40.76 13.62 40.86 14.06 41.06C14.5133 41.2467 14.8733 41.54 15.14 41.94C15.42 42.34 15.62 42.84 15.74 43.44C15.86 44.04 15.92 44.7533 15.92 45.58V51H13.24V45.66C13.24 44.8067 13.14 44.18 12.94 43.78C12.74 43.3667 12.34 43.16 11.74 43.16C11.2067 43.16 10.68 43.2533 10.16 43.44L9.92 43.52ZM23.1747 40.76C24.828 40.76 26.008 41.22 26.7147 42.14C27.4214 43.0467 27.7747 44.3267 27.7747 45.98C27.7747 49.4867 26.2414 51.24 23.1747 51.24C20.108 51.24 18.5747 49.4867 18.5747 45.98C18.5747 45.18 18.6547 44.46 18.8147 43.82C18.9747 43.18 19.2347 42.6333 19.5947 42.18C19.9547 41.7267 20.428 41.38 21.0147 41.14C21.6014 40.8867 22.3214 40.76 23.1747 40.76ZM23.1747 48.96C23.8947 48.96 24.388 48.7267 24.6547 48.26C24.9214 47.78 25.0547 47.02 25.0547 45.98C25.0547 44.94 24.9214 44.1933 24.6547 43.74C24.388 43.2733 23.8947 43.04 23.1747 43.04C22.4547 43.04 21.9614 43.2733 21.6947 43.74C21.428 44.1933 21.2947 44.94 21.2947 45.98C21.2947 46.3267 21.308 46.68 21.3347 47.04C21.3747 47.3867 21.4547 47.7067 21.5747 48C21.708 48.28 21.8947 48.5133 22.1347 48.7C22.388 48.8733 22.7347 48.96 23.1747 48.96ZM33.2192 43.52V51H30.5392V41H33.1992V41.56C34.0926 41.0267 34.9259 40.76 35.6992 40.76C36.3659 40.76 36.9192 40.86 37.3592 41.06C37.8126 41.2467 38.1726 41.54 38.4392 41.94C38.7192 42.34 38.9192 42.84 39.0392 43.44C39.1592 44.04 39.2192 44.7533 39.2192 45.58V51H36.5392V45.66C36.5392 44.8067 36.4392 44.18 36.2392 43.78C36.0392 43.3667 35.6392 43.16 35.0392 43.16C34.5059 43.16 33.9792 43.2533 33.4592 43.44L33.2192 43.52ZM48.1939 46.9V44.46H42.2739V46.9H48.1939ZM59.018 44.12V48.28C59.0446 48.6 59.098 48.8267 59.178 48.96C59.258 49.08 59.4246 49.1667 59.678 49.22L59.598 51.24C58.918 51.24 58.3713 51.1933 57.958 51.1C57.558 51.0067 57.1513 50.82 56.738 50.54C55.7646 51.0067 54.7846 51.24 53.798 51.24C51.7313 51.24 50.698 50.1467 50.698 47.96C50.698 46.8933 50.9846 46.14 51.558 45.7C52.1313 45.2467 53.0113 44.98 54.198 44.9L56.338 44.74V44.12C56.338 43.7067 56.2446 43.4267 56.058 43.28C55.8713 43.12 55.5713 43.04 55.158 43.04L51.398 43.2L51.318 41.34C52.758 40.9533 54.118 40.76 55.398 40.76C56.6913 40.76 57.618 41.0267 58.178 41.56C58.738 42.0933 59.018 42.9467 59.018 44.12ZM56.338 46.6L54.518 46.76C53.7713 46.8267 53.398 47.2267 53.398 47.96C53.398 48.6933 53.7246 49.06 54.378 49.06C54.8846 49.06 55.438 48.98 56.038 48.82L56.338 48.74V46.6ZM65.0528 43.52V51H62.3728V41H65.0328V41.56C65.9261 41.0267 66.7595 40.76 67.5328 40.76C68.1995 40.76 68.7528 40.86 69.1928 41.06C69.6461 41.2467 70.0061 41.54 70.2728 41.94C70.5528 42.34 70.7528 42.84 70.8728 43.44C70.9928 44.04 71.0528 44.7533 71.0528 45.58V51H68.3728V45.66C68.3728 44.8067 68.2728 44.18 68.0728 43.78C67.8728 43.3667 67.4728 43.16 66.8728 43.16C66.3395 43.16 65.8128 43.2533 65.2928 43.44L65.0528 43.52ZM76.9075 51V41H74.2275V51H76.9075ZM76.9075 39.72V37H74.2275V39.72H76.9075ZM82.8637 43.52V51H80.1837V41H82.8437V41.56C83.7504 41.0267 84.5371 40.76 85.2037 40.76C86.2837 40.76 87.1171 41.0733 87.7037 41.7C88.9304 41.0733 90.0504 40.76 91.0637 40.76C91.7304 40.76 92.2837 40.8533 92.7237 41.04C93.1771 41.2267 93.5371 41.52 93.8037 41.92C94.0837 42.3067 94.2837 42.8067 94.4037 43.42C94.5237 44.02 94.5837 44.74 94.5837 45.58V51H91.9037V45.66C91.9037 44.8067 91.8104 44.18 91.6237 43.78C91.4371 43.3667 91.0637 43.16 90.5037 43.16C90.1037 43.16 89.5837 43.2533 88.9437 43.44L88.6437 43.54C88.6704 44.0467 88.6904 44.4867 88.7037 44.86C88.7171 45.2333 88.7237 45.5533 88.7237 45.82V51H86.0437V45.86C86.0437 45.3667 86.0237 44.9467 85.9837 44.6C85.9571 44.2533 85.8904 43.9733 85.7837 43.76C85.6904 43.5467 85.5504 43.3933 85.3637 43.3C85.1771 43.2067 84.9371 43.16 84.6437 43.16C84.1371 43.16 83.6237 43.2533 83.1037 43.44L82.8637 43.52ZM105.841 47.14H99.9611C99.9744 47.7533 100.134 48.2 100.441 48.48C100.748 48.7467 101.201 48.88 101.801 48.88C103.041 48.88 104.148 48.84 105.121 48.76L105.681 48.7L105.721 50.68C104.214 51.0533 102.828 51.24 101.561 51.24C100.054 51.24 98.9611 50.84 98.2811 50.04C97.6011 49.24 97.2611 47.94 97.2611 46.14C97.2611 42.5533 98.7344 40.76 101.681 40.76C104.588 40.76 106.041 42.2667 106.041 45.28L105.841 47.14ZM99.9411 45.1H103.401C103.401 44.3 103.274 43.7467 103.021 43.44C102.781 43.12 102.341 42.96 101.701 42.96C101.061 42.96 100.608 43.1267 100.341 43.46C100.088 43.78 99.9544 44.3267 99.9411 45.1Z" fill="#4A5568"/>
<path d="M109 8C108.151 7.96378 118.254 3.81686 116 8C113.746 12.1831 114.294 43.4257 116 65C113.742 63.5132 107.156 69.0395 109 65C110.844 60.9605 109.849 8.03622 109 8Z" fill="#C53030"/>
<path d="M115 7.99994C125.004 9.00679 143 7.99988 146 7.99994C149 8 144.969 11.5264 146 13.9999C131.965 12.4611 125.639 12.8288 115 13.9999V7.99994Z" fill="#C53030"/>
<path d="M114 31C121.884 31.789 138 28 136 31C134 34 138.5 36 136 37C133.5 38 122.225 35.9231 114 37V31Z" fill="#C53030"/>
<path d="M120.342 36.1045L110.826 30.3617L123.722 8.99092C123.722 8.99092 145.689 11.9165 133.238 14.7338C120.788 17.551 112.984 22.7082 120.342 36.1045Z" fill="#C53030"/>
<rect x="114" y="12" width="7" height="5" fill="#C53030"/>
<rect x="114" y="16" width="5" height="5" fill="#C53030"/>
<rect x="114" y="20" width="3" height="5" fill="#C53030"/>
<circle cx="128.5" cy="23.5" r="3.5" fill="#C53030"/>
<path d="M135.106 10.9756C134.933 11.0342 142.769 11.0469 143.07 10.9756C143.372 10.9044 144.487 13.2751 145 13.7356C145.513 14.1961 142.791 12.8409 135.106 14.2927C127.421 15.7444 135.106 10.9756 135.106 10.9756Z" fill="#C53030"/>
</svg>
