<svg width="189" height="67" viewBox="0 0 189 67" fill="none" xmlns="http://www.w3.org/2000/svg">
<path d="M18.5957 27.7539C18.1621 26.4297 17.7051 25.2109 17.2246 24.0977C16.7441 22.9727 16.2695 21.9648 15.8008 21.0742C15.3438 20.1719 14.9043 19.3867 14.4824 18.7188C14.0723 18.0391 13.7207 17.4824 13.4277 17.0488C12.3379 18.9004 11.3594 20.7109 10.4922 22.4805C9.63672 24.2383 8.875 25.9961 8.20703 27.7539C9.14453 27.8594 10.0469 27.9473 10.9141 28.0176C11.7812 28.0762 12.6426 28.1055 13.498 28.1055C14.3418 28.1055 15.1797 28.0762 16.0117 28.0176C16.8555 27.9473 17.7168 27.8594 18.5957 27.7539ZM30.584 37.4043C30.5605 37.4043 30.5371 37.3984 30.5137 37.3867C30.4902 37.3867 30.4668 37.375 30.4434 37.3516C29.377 37.1875 28.3223 37.0703 27.2793 37C26.248 36.9297 25.2168 36.8945 24.1855 36.8945C23.166 36.8945 22.1582 36.9297 21.1621 37C20.1777 37.0703 19.1934 37.1875 18.209 37.3516C18.1855 37.375 18.1621 37.3867 18.1387 37.3867C18.1152 37.3984 18.0918 37.4043 18.0684 37.4043C17.8105 37.4043 17.5879 37.3047 17.4004 37.1055C17.2246 36.9062 17.1367 36.6895 17.1367 36.4551C17.1367 36.2441 17.207 36.0508 17.3477 35.875C17.5 35.6992 17.6934 35.5938 17.9277 35.5586C18.3965 35.4648 18.8711 35.3945 19.3516 35.3477C19.832 35.2891 20.3242 35.2305 20.8281 35.1719C20.7695 34.9492 20.6992 34.6738 20.6172 34.3457C20.5352 34.0059 20.4238 33.6074 20.2832 33.1504C20.1543 32.6934 19.9961 32.166 19.8086 31.5684C19.6328 30.959 19.4219 30.2734 19.1758 29.5117C18.1797 29.6523 17.2188 29.7637 16.293 29.8457C15.3672 29.916 14.4355 29.9512 13.498 29.9512C12.5488 29.9512 11.5879 29.916 10.6152 29.8457C9.64258 29.7637 8.62305 29.6523 7.55664 29.5117C6.93555 31.3633 6.43164 33.1973 6.04492 35.0137C6.77148 35.0371 7.49805 35.0957 8.22461 35.1895C8.96289 35.2715 9.71289 35.3945 10.4746 35.5586C10.6855 35.5938 10.8555 35.6992 10.9844 35.875C11.125 36.0508 11.1953 36.2441 11.1953 36.4551C11.1953 36.7246 11.0898 36.9473 10.8789 37.123C10.6797 37.3105 10.4688 37.4043 10.2461 37.4043C10.2109 37.4043 10.1816 37.3926 10.1582 37.3691C10.1348 37.3574 10.1055 37.3516 10.0703 37.3516C9.29688 37.1875 8.53516 37.0645 7.78516 36.9824C7.04688 36.9004 6.30859 36.8594 5.57031 36.8594C4.84375 36.8594 4.12891 36.9004 3.42578 36.9824C2.72266 37.0645 2.00781 37.1875 1.28125 37.3516C1.24609 37.3516 1.2168 37.3574 1.19336 37.3691C1.16992 37.3926 1.14062 37.4043 1.10547 37.4043C0.835938 37.4043 0.613281 37.3105 0.4375 37.123C0.261719 36.9355 0.173828 36.7129 0.173828 36.4551C0.173828 36.2441 0.238281 36.0566 0.367188 35.8926C0.496094 35.7285 0.671875 35.6172 0.894531 35.5586C1.42188 35.4297 1.94922 35.3301 2.47656 35.2598C3.01562 35.1895 3.56641 35.1309 4.12891 35.084C4.52734 33.1504 5.04883 31.2168 5.69336 29.2832C6.33789 27.3496 7.10547 25.3984 7.99609 23.4297C8.89844 21.4492 9.92969 19.4395 11.0898 17.4004C12.25 15.3613 13.5566 13.2637 15.0098 11.1074C15.1152 10.9668 15.2324 10.8672 15.3613 10.8086C15.502 10.75 15.6367 10.7207 15.7656 10.7207C15.9062 10.7207 16.041 10.75 16.1699 10.8086C16.2988 10.8555 16.4043 10.9316 16.4863 11.0371C18.9473 14.1777 21.0566 17.7402 22.8145 21.7246C24.584 25.6973 26.0371 30.168 27.1738 35.1367C28.3691 35.2422 29.5586 35.3828 30.7422 35.5586C30.9766 35.5938 31.1641 35.6992 31.3047 35.875C31.457 36.0508 31.5332 36.2441 31.5332 36.4551C31.5332 36.7129 31.4277 36.9355 31.2168 37.123C31.0176 37.3105 30.8066 37.4043 30.584 37.4043ZM54.2617 36.209C54.2383 36.4434 54.1328 36.6426 53.9453 36.8066C53.7578 36.959 53.5469 37.0352 53.3125 37.0352H53.2422C52.6797 36.9766 52.1348 36.9355 51.6074 36.9121C51.0918 36.877 50.582 36.8594 50.0781 36.8594C49.3398 36.8594 48.6309 36.8945 47.9512 36.9648C47.2832 37.0234 46.627 37.1055 45.9824 37.2109C45.959 37.2109 45.9297 37.2168 45.8945 37.2285C45.8711 37.2402 45.8477 37.2461 45.8242 37.2461C45.5781 37.2461 45.3613 37.1523 45.1738 36.9648C44.9863 36.7656 44.8926 36.5488 44.8926 36.3145C44.8926 36.1035 44.9629 35.9102 45.1035 35.7344C45.2559 35.5586 45.4375 35.4531 45.6484 35.418C46.1406 35.3242 46.6328 35.2539 47.125 35.207C47.6289 35.1484 48.1445 35.0957 48.6719 35.0488C48.7773 34.6855 48.8887 34.1934 49.0059 33.5723C49.123 32.9512 49.2285 32.2832 49.3223 31.5684C49.4277 30.8535 49.5098 30.1328 49.5684 29.4062C49.6387 28.6797 49.6738 28.0293 49.6738 27.4551C49.6738 26.8574 49.6387 26.207 49.5684 25.5039C49.5098 24.8008 49.3633 24.1445 49.1289 23.5352C48.9062 22.9141 48.5781 22.3984 48.1445 21.9883C47.7227 21.5781 47.1543 21.373 46.4395 21.373C45.6309 21.373 44.8809 21.5723 44.1895 21.9707C43.498 22.3691 42.9004 22.8789 42.3965 23.5C41.9043 24.1094 41.5117 24.7832 41.2188 25.5215C40.9375 26.2598 40.7969 26.9688 40.7969 27.6484V27.6836L40.7617 35.418C40.9727 35.4414 41.1777 35.4648 41.377 35.4883C41.5762 35.5 41.7754 35.5234 41.9746 35.5586C42.209 35.582 42.4023 35.6816 42.5547 35.8574C42.7188 36.0215 42.8008 36.2207 42.8008 36.4551C42.8008 36.7129 42.7012 36.9355 42.502 37.123C42.3145 37.3105 42.1035 37.4043 41.8691 37.4043C41.8223 37.4043 41.7871 37.3867 41.7637 37.3516C41.0605 37.2812 40.3398 37.2109 39.6016 37.1406C38.875 37.0703 38.1074 37.0352 37.2988 37.0352C36.5723 37.0352 35.8047 37.0703 34.9961 37.1406C34.1992 37.2227 33.3438 37.3457 32.4297 37.5098C32.3828 37.5332 32.3242 37.5449 32.2539 37.5449C31.9844 37.5449 31.7676 37.4453 31.6035 37.2461C31.4395 37.0469 31.3574 36.8301 31.3574 36.5957C31.3574 36.3848 31.4219 36.1914 31.5508 36.0156C31.6797 35.8398 31.8555 35.7344 32.0781 35.6992C32.5117 35.6055 32.9277 35.5352 33.3262 35.4883C33.7246 35.4297 34.123 35.3828 34.5215 35.3477V21.918C33.7832 21.8828 33.1621 21.8418 32.6582 21.7949C32.166 21.7363 31.8906 21.6953 31.832 21.6719C31.5977 21.6484 31.4043 21.5488 31.252 21.373C31.1113 21.1973 31.041 20.9922 31.041 20.7578C31.041 20.4766 31.1406 20.2539 31.3398 20.0898C31.5391 19.9141 31.75 19.8262 31.9727 19.8262C32.0195 19.8262 32.0547 19.8379 32.0781 19.8613C32.0898 19.8613 32.2246 19.873 32.4824 19.8965C32.7402 19.9199 33.0742 19.9492 33.4844 19.9844C33.9062 20.0195 34.3809 20.0488 34.9082 20.0723C35.4355 20.0957 35.9805 20.1074 36.543 20.1074C37.1055 20.1074 37.6562 20.0957 38.1953 20.0723C38.7344 20.0371 39.2266 19.9668 39.6719 19.8613C39.6953 19.8613 39.7188 19.8555 39.7422 19.8438C39.7773 19.832 39.8125 19.8262 39.8477 19.8262C40.1172 19.8262 40.3398 19.9258 40.5156 20.125C40.7031 20.3125 40.7969 20.5234 40.7969 20.7578V22.5684C41.4766 21.5723 42.2852 20.8223 43.2227 20.3184C44.1719 19.8027 45.2441 19.5449 46.4395 19.5449C47.1426 19.5449 47.752 19.668 48.2676 19.9141C48.7949 20.1484 49.2461 20.4707 49.6211 20.8809C50.0078 21.291 50.3184 21.7656 50.5527 22.3047C50.7988 22.832 50.9922 23.3887 51.1328 23.9746C51.2852 24.5605 51.3848 25.1582 51.4316 25.7676C51.4902 26.3652 51.5195 26.9277 51.5195 27.4551C51.5195 28.041 51.4902 28.6855 51.4316 29.3887C51.373 30.0801 51.2969 30.7715 51.2031 31.4629C51.1211 32.1543 51.0215 32.8105 50.9043 33.4316C50.7988 34.0527 50.6934 34.5801 50.5879 35.0137C51.0332 35.0371 51.4902 35.0605 51.959 35.084C52.4395 35.1074 52.9258 35.1484 53.418 35.207C53.6875 35.2305 53.8926 35.3477 54.0332 35.5586C54.1855 35.7578 54.2617 35.9746 54.2617 36.209ZM67.1113 37.4395C67.0879 37.4395 67.0586 37.4336 67.0234 37.4219C67 37.4102 66.9707 37.4043 66.9355 37.4043C65.9863 37.2168 65.084 37.082 64.2285 37C63.373 36.9062 62.5234 36.8594 61.6797 36.8594C60.8242 36.8594 59.9746 36.9062 59.1309 37C58.2871 37.082 57.3965 37.2168 56.459 37.4043C56.4238 37.4043 56.3945 37.4102 56.3711 37.4219C56.3477 37.4336 56.3184 37.4395 56.2832 37.4395C56.0137 37.4395 55.791 37.3398 55.6152 37.1406C55.4512 36.9414 55.3691 36.7246 55.3691 36.4902C55.3691 36.2793 55.4336 36.0859 55.5625 35.9102C55.7031 35.7344 55.8789 35.6289 56.0898 35.5938C56.5 35.5 56.9102 35.4297 57.3203 35.3828C57.7422 35.3242 58.1523 35.2656 58.5508 35.207V21.7422C57.8125 21.707 57.1914 21.6602 56.6875 21.6016C56.1836 21.543 55.9023 21.5137 55.8438 21.5137C55.6094 21.4785 55.416 21.373 55.2637 21.1973C55.123 21.0215 55.0527 20.8164 55.0527 20.582C55.0527 20.2891 55.1582 20.0664 55.3691 19.9141C55.5801 19.7617 55.7852 19.6855 55.9844 19.6855H56.0898C56.1016 19.6855 56.2363 19.7031 56.4941 19.7383C56.752 19.7617 57.0859 19.791 57.4961 19.8262C57.918 19.8613 58.3926 19.8965 58.9199 19.9316C59.4473 19.9551 59.9922 19.9668 60.5547 19.9668C61.1172 19.9668 61.668 19.9492 62.207 19.9141C62.7461 19.8672 63.2383 19.791 63.6836 19.6855H63.877C64.1465 19.6855 64.3691 19.7793 64.5449 19.9668C64.7207 20.1426 64.8086 20.3477 64.8086 20.582L64.7734 35.207C65.1836 35.2656 65.5938 35.3242 66.0039 35.3828C66.4258 35.4297 66.8535 35.5 67.2871 35.5938C67.5098 35.6289 67.6914 35.7344 67.832 35.9102C67.9727 36.0859 68.043 36.2793 68.043 36.4902C68.043 36.7598 67.9434 36.9824 67.7441 37.1582C67.5449 37.3457 67.334 37.4395 67.1113 37.4395ZM64.5625 14.3242C64.5625 14.7578 64.4805 15.168 64.3164 15.5547C64.1523 15.9297 63.9238 16.2578 63.6309 16.5391C63.3496 16.8203 63.0156 17.043 62.6289 17.207C62.2539 17.3711 61.8496 17.4531 61.416 17.4531C60.9824 17.4531 60.5723 17.3711 60.1855 17.207C59.8105 17.043 59.4824 16.8203 59.2012 16.5391C58.9199 16.2578 58.6973 15.9297 58.5332 15.5547C58.3691 15.168 58.2871 14.7578 58.2871 14.3242C58.2871 13.8906 58.3691 13.4863 58.5332 13.1113C58.6973 12.7246 58.9199 12.3906 59.2012 12.1094C59.4824 11.8281 59.8105 11.6055 60.1855 11.4414C60.5723 11.2773 60.9824 11.1953 61.416 11.1953C61.8496 11.1953 62.2539 11.2773 62.6289 11.4414C63.0156 11.6055 63.3496 11.8281 63.6309 12.1094C63.9238 12.3906 64.1523 12.7246 64.3164 13.1113C64.4805 13.4863 64.5625 13.8906 64.5625 14.3242ZM100.299 36.9297H100.176C99.7422 36.8711 99.3086 36.8301 98.875 36.8066C98.4414 36.7715 97.9902 36.7539 97.5215 36.7539C96.959 36.7539 96.3555 36.7832 95.7109 36.8418C95.0664 36.8887 94.3398 36.9766 93.5312 37.1055H93.373C93.127 37.1055 92.916 37.0176 92.7402 36.8418C92.5645 36.6543 92.4766 36.4434 92.4766 36.209C92.4766 35.9746 92.5469 35.7695 92.6875 35.5938C92.8398 35.418 93.0215 35.3125 93.2324 35.2773C93.7598 35.207 94.2578 35.1426 94.7266 35.084C95.1953 35.0254 95.6348 34.9785 96.0449 34.9434C96.127 34.5332 96.2207 33.9824 96.3262 33.291C96.4434 32.5996 96.5488 31.8672 96.6426 31.0938C96.7363 30.3086 96.8125 29.5234 96.8711 28.7383C96.9414 27.9414 96.9766 27.2383 96.9766 26.6289C96.9766 26.0547 96.9414 25.4688 96.8711 24.8711C96.8008 24.2617 96.6602 23.7109 96.4492 23.2188C96.2383 22.7266 95.9336 22.3281 95.5352 22.0234C95.1484 21.707 94.6328 21.5488 93.9883 21.5488C93.168 21.5488 92.459 21.7188 91.8613 22.0586C91.2754 22.3984 90.7715 22.8203 90.3496 23.3242C89.9277 23.8164 89.582 24.3496 89.3125 24.9238C89.0547 25.498 88.8496 26.0195 88.6973 26.4883C88.6973 27.4258 88.6621 28.3164 88.5918 29.1602C88.5566 29.6758 88.5098 30.209 88.4512 30.7598C88.3926 31.2988 88.334 31.8262 88.2754 32.3418C88.2168 32.8457 88.1582 33.3262 88.0996 33.7832C88.041 34.2285 87.9883 34.6152 87.9414 34.9434C88.3047 34.9434 88.6738 34.9609 89.0488 34.9961C89.4355 35.0195 89.834 35.0488 90.2441 35.084C90.502 35.1074 90.7012 35.207 90.8418 35.3828C90.9941 35.5586 91.0703 35.7637 91.0703 35.998C91.0703 36.2793 90.9766 36.5078 90.7891 36.6836C90.6016 36.8477 90.3965 36.9297 90.1738 36.9297H90.0684C89.5762 36.8711 89.1133 36.8359 88.6797 36.8242C88.2461 36.8008 87.8184 36.7891 87.3965 36.7891C86.7871 36.7891 86.1719 36.8184 85.5508 36.877C84.9414 36.9238 84.2734 37 83.5469 37.1055H83.4062C83.1484 37.1055 82.9316 37.0176 82.7559 36.8418C82.5918 36.6543 82.5098 36.4434 82.5098 36.209C82.5098 35.9746 82.5801 35.7695 82.7207 35.5938C82.873 35.418 83.0664 35.3125 83.3008 35.2773C83.8047 35.207 84.2793 35.1484 84.7246 35.1016C85.1699 35.043 85.6211 35.002 86.0781 34.9785C86.125 34.6855 86.1777 34.3164 86.2363 33.8711C86.2949 33.4141 86.3535 32.916 86.4121 32.377C86.4824 31.8379 86.5469 31.2812 86.6055 30.707C86.6758 30.1328 86.7285 29.5762 86.7637 29.0371C86.7871 28.6387 86.8105 28.2227 86.834 27.7891C86.8574 27.3438 86.8691 26.8867 86.8691 26.418C86.8691 25.8555 86.8398 25.2871 86.7812 24.7129C86.7227 24.1387 86.5938 23.6172 86.3945 23.1484C86.1953 22.6797 85.9082 22.2988 85.5332 22.0059C85.1699 21.7012 84.6777 21.5488 84.0566 21.5488C83.4707 21.5488 82.9316 21.6836 82.4395 21.9531C81.9473 22.2109 81.502 22.5449 81.1035 22.9551C80.7051 23.3535 80.3535 23.7988 80.0488 24.291C79.7559 24.7715 79.5039 25.2402 79.293 25.6973C79.082 26.1426 78.9121 26.541 78.7832 26.8926C78.666 27.2324 78.5898 27.4668 78.5547 27.5957L78.5195 35.2773C78.7305 35.3008 78.9355 35.3242 79.1348 35.3477C79.334 35.3711 79.5332 35.3945 79.7324 35.418C79.9668 35.4531 80.1602 35.5586 80.3125 35.7344C80.4766 35.9102 80.5586 36.1152 80.5586 36.3496C80.5586 36.6074 80.459 36.8242 80.2598 37C80.0723 37.1641 79.8613 37.2461 79.627 37.2461H79.5215C78.8184 37.1523 78.0977 37.0762 77.3594 37.0176C76.6328 36.959 75.8652 36.9297 75.0566 36.9297C74.3301 36.9297 73.5625 36.959 72.7539 37.0176C71.957 37.0879 71.1016 37.2168 70.1875 37.4043C70.1523 37.4043 70.123 37.4102 70.0996 37.4219C70.0762 37.4336 70.0469 37.4395 70.0117 37.4395C69.7422 37.4395 69.5254 37.3398 69.3613 37.1406C69.1973 36.9414 69.1152 36.7246 69.1152 36.4902C69.1152 36.2793 69.1797 36.0859 69.3086 35.9102C69.4375 35.7344 69.6133 35.6289 69.8359 35.5938C70.2695 35.5 70.6855 35.4297 71.084 35.3828C71.4824 35.3242 71.8809 35.2773 72.2793 35.2422V22.0938C71.541 22.0586 70.9199 22.0176 70.416 21.9707C69.9238 21.9121 69.6484 21.8828 69.5898 21.8828C69.3555 21.8477 69.1621 21.7422 69.0098 21.5664C68.8691 21.3906 68.7988 21.1855 68.7988 20.9512C68.7988 20.6582 68.9043 20.4355 69.1152 20.2832C69.3262 20.1191 69.5312 20.0371 69.7305 20.0371H69.8359C69.8477 20.0371 69.9824 20.0547 70.2402 20.0898C70.498 20.1133 70.832 20.1484 71.2422 20.1953C71.6641 20.2305 72.1387 20.2656 72.666 20.3008C73.1934 20.3242 73.7383 20.3359 74.3008 20.3359C74.8633 20.3359 75.4141 20.3184 75.9531 20.2832C76.4922 20.2363 76.9844 20.1543 77.4297 20.0371H77.6055C77.875 20.0371 78.0977 20.1309 78.2734 20.3184C78.4609 20.5059 78.5547 20.7168 78.5547 20.9512V23.2539C78.8359 22.7969 79.1582 22.3574 79.5215 21.9355C79.8965 21.5137 80.3125 21.1387 80.7695 20.8105C81.2266 20.4824 81.7305 20.2188 82.2812 20.0195C82.832 19.8203 83.4238 19.7207 84.0566 19.7207C84.6191 19.7207 85.1289 19.8027 85.5859 19.9668C86.043 20.1309 86.4473 20.3652 86.7988 20.6699C87.1621 20.9629 87.4727 21.3145 87.7305 21.7246C87.9883 22.1348 88.1934 22.5801 88.3457 23.0605C88.6035 22.6621 88.9082 22.2637 89.2598 21.8652C89.623 21.4668 90.0332 21.1094 90.4902 20.793C90.959 20.4766 91.4805 20.2188 92.0547 20.0195C92.6406 19.8203 93.2852 19.7207 93.9883 19.7207C94.9727 19.7207 95.7754 19.9316 96.3965 20.3535C97.0293 20.7754 97.5273 21.3145 97.8906 21.9707C98.2539 22.627 98.5059 23.3652 98.6465 24.1855C98.7871 25.0059 98.8574 25.8086 98.8574 26.5938C98.8574 27.2148 98.8223 27.9121 98.752 28.6855C98.6934 29.4473 98.6172 30.209 98.5234 30.9707C98.4297 31.7324 98.3301 32.4648 98.2246 33.168C98.1309 33.8594 98.043 34.4395 97.9609 34.9082C98.3945 34.9082 98.8105 34.9258 99.209 34.9609C99.6074 34.9844 100.006 35.0254 100.404 35.084C100.639 35.1074 100.832 35.207 100.984 35.3828C101.148 35.5586 101.23 35.7637 101.23 35.998C101.23 36.2441 101.131 36.4609 100.932 36.6484C100.744 36.8359 100.533 36.9297 100.299 36.9297ZM118.861 27.7188V27.4199C118.861 26.541 118.768 25.7266 118.58 24.9766C118.393 24.2266 118.094 23.5645 117.684 22.9902C117.285 22.4043 116.77 21.9238 116.137 21.5488C115.504 21.1738 114.742 20.9219 113.852 20.793C113.23 20.8633 112.691 21.0332 112.234 21.3027C111.777 21.5723 111.385 21.9062 111.057 22.3047C110.74 22.6914 110.477 23.1309 110.266 23.623C110.055 24.1152 109.885 24.625 109.756 25.1523C109.639 25.668 109.551 26.1895 109.492 26.7168C109.434 27.2324 109.398 27.7188 109.387 28.1758C109.574 28.2344 109.809 28.2988 110.09 28.3691C110.383 28.4395 110.711 28.5098 111.074 28.5801C111.438 28.6387 111.83 28.6914 112.252 28.7383C112.686 28.7734 113.137 28.791 113.605 28.791C114.602 28.791 115.533 28.6973 116.4 28.5098C117.279 28.3223 118.1 28.0586 118.861 27.7188ZM120.654 28.4043C120.619 28.709 120.455 28.9727 120.162 29.1953C119.869 29.418 119.5 29.6172 119.055 29.793C118.609 29.957 118.117 30.0977 117.578 30.2148C117.051 30.3203 116.529 30.4082 116.014 30.4785C115.498 30.5488 115.023 30.6016 114.59 30.6367C114.156 30.6602 113.816 30.6719 113.57 30.6719C112.715 30.6719 111.924 30.6133 111.197 30.4961C110.482 30.3789 109.891 30.2559 109.422 30.127C109.492 30.8535 109.627 31.5684 109.826 32.2715C110.025 32.9746 110.312 33.6074 110.688 34.1699C111.062 34.7207 111.531 35.1719 112.094 35.5234C112.656 35.8633 113.336 36.0332 114.133 36.0332C114.426 36.0332 114.76 35.998 115.135 35.9277C115.51 35.8457 115.879 35.7344 116.242 35.5938C116.605 35.4414 116.939 35.2656 117.244 35.0664C117.549 34.8555 117.789 34.6211 117.965 34.3633C118.164 34.1289 118.404 34.0117 118.686 34.0117C118.932 34.0117 119.148 34.1113 119.336 34.3105C119.523 34.498 119.617 34.709 119.617 34.9434C119.617 35.1895 119.541 35.3828 119.389 35.5234C119.107 35.957 118.715 36.3262 118.211 36.6309C117.707 36.9355 117.162 37.1816 116.576 37.3691C115.99 37.5684 115.398 37.709 114.801 37.791C114.203 37.8848 113.658 37.9316 113.166 37.9316C111.76 37.9316 110.453 37.6797 109.246 37.1758C108.039 36.6836 106.99 36.0039 106.1 35.1367C105.209 34.2695 104.506 33.25 103.99 32.0781C103.486 30.9062 103.234 29.6406 103.234 28.2812C103.234 26.793 103.457 25.4688 103.902 24.3086C104.348 23.1367 104.98 22.1523 105.801 21.3555C106.621 20.5469 107.617 19.9375 108.789 19.5273C109.961 19.1055 111.279 18.8945 112.744 18.8945C114.127 18.9531 115.316 19.1875 116.312 19.5977C117.32 20.0078 118.146 20.5762 118.791 21.3027C119.436 22.0293 119.91 22.9082 120.215 23.9395C120.531 24.959 120.689 26.1074 120.689 27.3848C120.689 27.6777 120.684 27.9121 120.672 28.0879C120.66 28.252 120.654 28.3574 120.654 28.4043Z" fill="#2D3748"/>
<path d="M137.16 50.24C136.312 50.24 135.536 50.08 134.832 49.76C134.144 49.424 133.6 48.976 133.2 48.416C132.816 47.84 132.624 47.208 132.624 46.52C132.624 45.416 133.072 44.528 133.968 43.856C134.88 43.184 136.128 42.72 137.712 42.464L140.712 42.008V41.672C140.712 41.064 140.584 40.616 140.328 40.328C140.072 40.04 139.64 39.896 139.032 39.896C138.664 39.896 138.36 39.96 138.12 40.088C137.88 40.216 137.632 40.392 137.376 40.616C137.152 40.808 136.984 40.936 136.872 41C136.824 41.128 136.736 41.192 136.608 41.192H133.992C133.832 41.192 133.696 41.144 133.584 41.048C133.488 40.936 133.448 40.808 133.464 40.664C133.48 40.232 133.688 39.752 134.088 39.224C134.504 38.696 135.128 38.24 135.96 37.856C136.808 37.472 137.848 37.28 139.08 37.28C141.048 37.28 142.504 37.72 143.448 38.6C144.392 39.464 144.864 40.632 144.864 42.104V49.4C144.864 49.56 144.808 49.704 144.696 49.832C144.584 49.944 144.44 50 144.264 50H141.48C141.32 50 141.176 49.944 141.048 49.832C140.936 49.704 140.88 49.56 140.88 49.4V48.56C140.528 49.056 140.032 49.464 139.392 49.784C138.768 50.088 138.024 50.24 137.16 50.24ZM138.288 47.504C139.024 47.504 139.616 47.264 140.064 46.784C140.528 46.304 140.76 45.6 140.76 44.672V44.336L138.72 44.696C137.28 44.952 136.56 45.456 136.56 46.208C136.56 46.608 136.728 46.928 137.064 47.168C137.4 47.392 137.808 47.504 138.288 47.504Z" fill="#2D3748"/>
<path d="M146.16 50C146 50 145.864 49.944 145.752 49.832C145.64 49.72 145.584 49.584 145.584 49.424V38.096C145.584 37.936 145.64 37.8 145.752 37.688C145.864 37.576 146 37.52 146.16 37.52H148.128C148.288 37.52 148.424 37.576 148.536 37.688C148.648 37.8 148.704 37.936 148.704 38.096V39.08C149.648 37.88 150.984 37.28 152.712 37.28C154.184 37.28 155.352 37.768 156.216 38.744C157.08 39.704 157.512 41.016 157.512 42.68V49.424C157.512 49.584 157.456 49.72 157.344 49.832C157.248 49.944 157.112 50 156.936 50H154.824C154.664 50 154.528 49.944 154.416 49.832C154.304 49.72 154.248 49.584 154.248 49.424V42.824C154.248 41.88 154.016 41.152 153.552 40.64C153.104 40.112 152.448 39.848 151.584 39.848C150.736 39.848 150.064 40.112 149.568 40.64C149.088 41.168 148.848 41.896 148.848 42.824V49.424C148.848 49.584 148.792 49.72 148.68 49.832C148.584 49.944 148.448 50 148.272 50H146.16Z" fill="#2D3748"/>
<path d="M163.98 34.36C161.004 34.36 158.712 33.652 157.104 32.236C155.496 30.82 154.62 28.828 154.476 26.26C154.452 25.948 154.44 25.408 154.44 24.64C154.44 23.872 154.452 23.332 154.476 23.02C154.62 20.476 155.52 18.496 157.176 17.08C158.832 15.64 161.1 14.92 163.98 14.92C166.884 14.92 169.164 15.64 170.82 17.08C172.476 18.496 173.376 20.476 173.52 23.02C173.544 23.332 173.556 23.872 173.556 24.64C173.556 25.408 173.544 25.948 173.52 26.26C173.376 28.828 172.5 30.82 170.892 32.236C169.284 33.652 166.98 34.36 163.98 34.36ZM163.98 29.968C165.036 29.968 165.816 29.656 166.32 29.032C166.824 28.384 167.112 27.4 167.184 26.08C167.208 25.84 167.22 25.36 167.22 24.64C167.22 23.92 167.208 23.44 167.184 23.2C167.112 21.904 166.812 20.932 166.284 20.284C165.78 19.636 165.012 19.312 163.98 19.312C161.988 19.312 160.932 20.608 160.812 23.2L160.776 24.64L160.812 26.08C160.86 27.4 161.136 28.384 161.64 29.032C162.168 29.656 162.948 29.968 163.98 29.968Z" fill="#2D3748"/>
<path d="M176.024 34C175.76 34 175.544 33.916 175.376 33.748C175.208 33.58 175.124 33.364 175.124 33.1V16.18C175.124 15.916 175.208 15.7 175.376 15.532C175.544 15.364 175.76 15.28 176.024 15.28H180.164C180.428 15.28 180.644 15.376 180.812 15.568C181.004 15.736 181.1 15.94 181.1 16.18V17.62C182.42 16.06 184.196 15.28 186.428 15.28H188.012C188.276 15.28 188.492 15.364 188.66 15.532C188.828 15.7 188.912 15.916 188.912 16.18V19.888C188.912 20.128 188.828 20.344 188.66 20.536C188.492 20.704 188.276 20.788 188.012 20.788H184.52C183.536 20.788 182.768 21.064 182.216 21.616C181.688 22.144 181.424 22.9 181.424 23.884V33.1C181.424 33.364 181.328 33.58 181.136 33.748C180.968 33.916 180.752 34 180.488 34H176.024Z" fill="#2D3748"/>
<path d="M164.552 50.24C163.256 50.24 162.168 50.056 161.288 49.688C160.424 49.32 159.784 48.88 159.368 48.368C158.952 47.856 158.744 47.4 158.744 47C158.744 46.84 158.8 46.712 158.912 46.616C159.04 46.504 159.176 46.448 159.32 46.448H162.056C162.152 46.448 162.24 46.488 162.32 46.568C162.512 46.696 162.656 46.8 162.752 46.88C163.104 47.136 163.408 47.328 163.664 47.456C163.936 47.568 164.264 47.624 164.648 47.624C165.112 47.624 165.488 47.536 165.776 47.36C166.08 47.168 166.232 46.904 166.232 46.568C166.232 46.296 166.152 46.08 165.992 45.92C165.848 45.76 165.56 45.608 165.128 45.464C164.696 45.304 164.04 45.136 163.16 44.96C161.832 44.688 160.808 44.248 160.088 43.64C159.384 43.016 159.032 42.184 159.032 41.144C159.032 40.488 159.24 39.864 159.656 39.272C160.072 38.68 160.688 38.2 161.504 37.832C162.336 37.464 163.32 37.28 164.456 37.28C165.592 37.28 166.584 37.456 167.432 37.808C168.28 38.16 168.92 38.592 169.352 39.104C169.8 39.6 170.024 40.056 170.024 40.472C170.024 40.616 169.968 40.744 169.856 40.856C169.76 40.968 169.64 41.024 169.496 41.024H167C166.872 41.024 166.752 40.984 166.64 40.904C166.432 40.792 166.248 40.672 166.088 40.544C165.816 40.336 165.56 40.176 165.32 40.064C165.08 39.952 164.784 39.896 164.432 39.896C164.016 39.896 163.68 39.992 163.424 40.184C163.184 40.376 163.064 40.624 163.064 40.928C163.064 41.168 163.128 41.368 163.256 41.528C163.4 41.688 163.688 41.848 164.12 42.008C164.568 42.152 165.224 42.304 166.088 42.464C167.64 42.736 168.768 43.216 169.472 43.904C170.192 44.592 170.552 45.4 170.552 46.328C170.552 47.512 170.024 48.464 168.968 49.184C167.912 49.888 166.44 50.24 164.552 50.24Z" fill="#2D3748"/>
<path d="M34.3135 40.4902L34.3926 41.5889C35.0723 40.7393 35.9834 40.3145 37.126 40.3145C38.1338 40.3145 38.8838 40.6104 39.376 41.2021C39.8682 41.7939 40.1201 42.6787 40.1318 43.8564V50H37.5918V43.918C37.5918 43.3789 37.4746 42.9893 37.2402 42.749C37.0059 42.5029 36.6162 42.3799 36.0713 42.3799C35.3564 42.3799 34.8203 42.6846 34.4629 43.2939V50H31.9229V40.4902H34.3135ZM41.6699 45.1572C41.6699 44.2139 41.8516 43.373 42.2148 42.6348C42.5781 41.8965 43.0996 41.3252 43.7793 40.9209C44.4648 40.5166 45.2588 40.3145 46.1611 40.3145C47.4443 40.3145 48.4902 40.707 49.2988 41.4922C50.1133 42.2773 50.5674 43.3438 50.6611 44.6914L50.6787 45.3418C50.6787 46.8008 50.2715 47.9727 49.457 48.8574C48.6426 49.7363 47.5498 50.1758 46.1787 50.1758C44.8076 50.1758 43.7119 49.7363 42.8916 48.8574C42.0771 47.9785 41.6699 46.7832 41.6699 45.2715V45.1572ZM44.21 45.3418C44.21 46.2441 44.3799 46.9355 44.7197 47.416C45.0596 47.8906 45.5459 48.1279 46.1787 48.1279C46.7939 48.1279 47.2744 47.8936 47.6201 47.4248C47.9658 46.9502 48.1387 46.1943 48.1387 45.1572C48.1387 44.2725 47.9658 43.5869 47.6201 43.1006C47.2744 42.6143 46.7881 42.3711 46.1611 42.3711C45.54 42.3711 45.0596 42.6143 44.7197 43.1006C44.3799 43.5811 44.21 44.3281 44.21 45.3418ZM54.5811 40.4902L54.6602 41.5889C55.3398 40.7393 56.251 40.3145 57.3936 40.3145C58.4014 40.3145 59.1514 40.6104 59.6436 41.2021C60.1357 41.7939 60.3877 42.6787 60.3994 43.8564V50H57.8594V43.918C57.8594 43.3789 57.7422 42.9893 57.5078 42.749C57.2734 42.5029 56.8838 42.3799 56.3389 42.3799C55.624 42.3799 55.0879 42.6846 54.7305 43.2939V50H52.1904V40.4902H54.5811ZM73.0117 46.9238C73 46.8242 72.9912 46.7217 72.9854 46.6162C72.9795 46.5107 72.9766 46.4023 72.9766 46.291H72.6514C72.417 46.291 72.1387 46.3086 71.8164 46.3438C71.5 46.3789 71.1719 46.4346 70.832 46.5107C70.4922 46.5869 70.1553 46.6895 69.8213 46.8184C69.4873 46.9414 69.1885 47.0938 68.9248 47.2754C68.6611 47.4512 68.4473 47.6592 68.2832 47.8994C68.125 48.1396 68.0459 48.415 68.0459 48.7256C68.0459 48.8896 68.084 49.0303 68.1602 49.1475C68.2422 49.2646 68.3418 49.3613 68.459 49.4375C68.582 49.5078 68.7168 49.5605 68.8633 49.5957C69.0098 49.625 69.1504 49.6396 69.2852 49.6396C69.7012 49.6396 70.0938 49.5605 70.4629 49.4023C70.8379 49.2383 71.1836 49.0273 71.5 48.7695C71.8164 48.5059 72.1006 48.2129 72.3525 47.8906C72.6045 47.5684 72.8242 47.2461 73.0117 46.9238ZM77.2217 49.9648H77.1865C77.0869 49.9531 76.9844 49.9473 76.8789 49.9473C76.7734 49.9473 76.6709 49.9473 76.5713 49.9473C76.0205 49.9473 75.4902 49.9824 74.9805 50.0527C74.4766 50.123 73.9697 50.2314 73.46 50.3779C73.4424 50.3779 73.4248 50.3809 73.4072 50.3867C73.3896 50.3926 73.3662 50.3955 73.3369 50.3955C73.2021 50.3955 73.0908 50.3428 73.0029 50.2373C72.9209 50.1377 72.8799 50.0352 72.8799 49.9297V49.8594C72.8799 49.8477 72.8945 49.7305 72.9238 49.5078C72.9531 49.2793 72.9824 48.9629 73.0117 48.5586C72.7598 48.8398 72.4902 49.1035 72.2031 49.3496C71.9219 49.5898 71.623 49.8008 71.3066 49.9824C70.9961 50.1582 70.6738 50.2959 70.3398 50.3955C70.0059 50.501 69.6602 50.5537 69.3027 50.5537C69.0215 50.5537 68.749 50.5098 68.4854 50.4219C68.2217 50.3398 67.9873 50.2197 67.7822 50.0615C67.583 49.9033 67.4219 49.7129 67.2988 49.4902C67.1816 49.2617 67.123 49.0068 67.123 48.7256C67.123 48.2861 67.2168 47.8994 67.4043 47.5654C67.5977 47.2314 67.8496 46.9414 68.1602 46.6953C68.4707 46.4434 68.8223 46.2354 69.2148 46.0713C69.6133 45.9014 70.0176 45.7666 70.4277 45.667C70.8379 45.5615 71.2363 45.4883 71.623 45.4473C72.0098 45.4004 72.3525 45.377 72.6514 45.377H72.8623C72.8623 45.0195 72.7979 44.6709 72.6689 44.3311C72.5459 43.9912 72.3701 43.6895 72.1416 43.4258C71.9189 43.1621 71.6523 42.9512 71.3418 42.793C71.0312 42.6289 70.6885 42.5469 70.3135 42.5469C70.0381 42.5469 69.7686 42.626 69.5049 42.7842C69.2412 42.9365 69.0068 43.1328 68.8018 43.373C68.5967 43.6133 68.4297 43.8828 68.3008 44.1816C68.1777 44.4805 68.1162 44.7705 68.1162 45.0518C68.1162 45.1689 68.0664 45.2686 67.9668 45.3506C67.873 45.4268 67.7676 45.4648 67.6504 45.4648C67.5215 45.4648 67.4102 45.418 67.3164 45.3242C67.2227 45.2246 67.1758 45.1162 67.1758 44.999C67.1758 44.7178 67.2256 44.4248 67.3252 44.1201C67.4248 43.8096 67.5684 43.5078 67.7559 43.2148C67.9492 42.916 68.1807 42.6348 68.4502 42.3711C68.7256 42.1074 69.0361 41.876 69.3818 41.6768C69.7334 41.4717 70.1172 41.3105 70.5332 41.1934C70.9492 41.0762 71.3916 41.0176 71.8604 41.0176C72.5166 41.0176 73.0762 41.1201 73.5391 41.3252C74.0078 41.5303 74.3975 41.8086 74.708 42.1602C75.0244 42.5117 75.2734 42.9189 75.4551 43.3818C75.6367 43.8447 75.7744 44.334 75.8682 44.8496C75.9619 45.3652 76.0205 45.8896 76.0439 46.4229C76.0732 46.9561 76.0879 47.4658 76.0879 47.9521C76.0879 48.1982 76.085 48.4092 76.0791 48.585C76.0732 48.7607 76.0703 48.9072 76.0703 49.0244C76.1582 49.0244 76.2461 49.0215 76.334 49.0156C76.4277 49.0098 76.5186 49.0068 76.6064 49.0068C76.7061 49.0068 76.8086 49.0098 76.9141 49.0156C77.0254 49.0215 77.1338 49.0244 77.2393 49.0244C77.3682 49.0361 77.4707 49.0859 77.5469 49.1738C77.6289 49.2617 77.6699 49.3701 77.6699 49.499C77.6699 49.6221 77.626 49.7305 77.5381 49.8242C77.4561 49.918 77.3506 49.9648 77.2217 49.9648ZM89.2012 49.6045C89.1895 49.7217 89.1367 49.8213 89.043 49.9033C88.9492 49.9795 88.8438 50.0176 88.7266 50.0176H88.6914C88.4102 49.9883 88.1377 49.9678 87.874 49.9561C87.6162 49.9385 87.3613 49.9297 87.1094 49.9297C86.7402 49.9297 86.3857 49.9473 86.0459 49.9824C85.7119 50.0117 85.3838 50.0527 85.0615 50.1055C85.0498 50.1055 85.0352 50.1084 85.0176 50.1143C85.0059 50.1201 84.9941 50.123 84.9824 50.123C84.8594 50.123 84.751 50.0762 84.6572 49.9824C84.5635 49.8828 84.5166 49.7744 84.5166 49.6572C84.5166 49.5518 84.5518 49.4551 84.6221 49.3672C84.6982 49.2793 84.7891 49.2266 84.8945 49.209C85.1406 49.1621 85.3867 49.127 85.6328 49.1035C85.8848 49.0742 86.1426 49.0479 86.4062 49.0244C86.459 48.8428 86.5146 48.5967 86.5732 48.2861C86.6318 47.9756 86.6846 47.6416 86.7314 47.2842C86.7842 46.9268 86.8252 46.5664 86.8545 46.2031C86.8896 45.8398 86.9072 45.5146 86.9072 45.2275C86.9072 44.9287 86.8896 44.6035 86.8545 44.252C86.8252 43.9004 86.752 43.5723 86.6348 43.2676C86.5234 42.957 86.3594 42.6992 86.1426 42.4941C85.9316 42.2891 85.6475 42.1865 85.29 42.1865C84.8857 42.1865 84.5107 42.2861 84.165 42.4854C83.8193 42.6846 83.5205 42.9395 83.2686 43.25C83.0225 43.5547 82.8262 43.8916 82.6797 44.2607C82.5391 44.6299 82.4688 44.9844 82.4688 45.3242V45.3418L82.4512 49.209C82.5566 49.2207 82.6592 49.2324 82.7588 49.2441C82.8584 49.25 82.958 49.2617 83.0576 49.2793C83.1748 49.291 83.2715 49.3408 83.3477 49.4287C83.4297 49.5107 83.4707 49.6104 83.4707 49.7275C83.4707 49.8564 83.4209 49.9678 83.3213 50.0615C83.2275 50.1553 83.1221 50.2021 83.0049 50.2021C82.9814 50.2021 82.9639 50.1934 82.9521 50.1758C82.6006 50.1406 82.2402 50.1055 81.8711 50.0703C81.5078 50.0352 81.124 50.0176 80.7197 50.0176C80.3564 50.0176 79.9727 50.0352 79.5684 50.0703C79.1699 50.1113 78.7422 50.1729 78.2852 50.2549C78.2617 50.2666 78.2324 50.2725 78.1973 50.2725C78.0625 50.2725 77.9541 50.2227 77.8721 50.123C77.79 50.0234 77.749 49.915 77.749 49.7979C77.749 49.6924 77.7812 49.5957 77.8457 49.5078C77.9102 49.4199 77.998 49.3672 78.1094 49.3496C78.3262 49.3027 78.5342 49.2676 78.7334 49.2441C78.9326 49.2148 79.1318 49.1914 79.3311 49.1738V42.459C78.9619 42.4414 78.6514 42.4209 78.3994 42.3975C78.1533 42.3682 78.0156 42.3477 77.9863 42.3359C77.8691 42.3242 77.7725 42.2744 77.6963 42.1865C77.626 42.0986 77.5908 41.9961 77.5908 41.8789C77.5908 41.7383 77.6406 41.627 77.7402 41.5449C77.8398 41.457 77.9453 41.4131 78.0566 41.4131C78.0801 41.4131 78.0977 41.4189 78.1094 41.4307C78.1152 41.4307 78.1826 41.4365 78.3115 41.4482C78.4404 41.46 78.6074 41.4746 78.8125 41.4922C79.0234 41.5098 79.2607 41.5244 79.5244 41.5361C79.7881 41.5479 80.0605 41.5537 80.3418 41.5537C80.623 41.5537 80.8984 41.5479 81.168 41.5361C81.4375 41.5186 81.6836 41.4834 81.9062 41.4307C81.918 41.4307 81.9297 41.4277 81.9414 41.4219C81.959 41.416 81.9766 41.4131 81.9941 41.4131C82.1289 41.4131 82.2402 41.4629 82.3281 41.5625C82.4219 41.6562 82.4688 41.7617 82.4688 41.8789V42.7842C82.8086 42.2861 83.2129 41.9111 83.6816 41.6592C84.1562 41.4014 84.6924 41.2725 85.29 41.2725C85.6416 41.2725 85.9463 41.334 86.2041 41.457C86.4678 41.5742 86.6934 41.7354 86.8809 41.9404C87.0742 42.1455 87.2295 42.3828 87.3467 42.6523C87.4697 42.916 87.5664 43.1943 87.6367 43.4873C87.7129 43.7803 87.7627 44.0791 87.7861 44.3838C87.8154 44.6826 87.8301 44.9639 87.8301 45.2275C87.8301 45.5205 87.8154 45.8428 87.7861 46.1943C87.7568 46.54 87.7188 46.8857 87.6719 47.2314C87.6309 47.5771 87.5811 47.9053 87.5225 48.2158C87.4697 48.5264 87.417 48.79 87.3643 49.0068C87.5869 49.0186 87.8154 49.0303 88.0498 49.042C88.29 49.0537 88.5332 49.0742 88.7793 49.1035C88.9141 49.1152 89.0166 49.1738 89.0869 49.2793C89.1631 49.3789 89.2012 49.4873 89.2012 49.6045ZM95.626 50.2197C95.6143 50.2197 95.5996 50.2168 95.582 50.2109C95.5703 50.2051 95.5557 50.2021 95.5381 50.2021C95.0635 50.1084 94.6123 50.041 94.1846 50C93.7568 49.9531 93.332 49.9297 92.9102 49.9297C92.4824 49.9297 92.0576 49.9531 91.6357 50C91.2139 50.041 90.7686 50.1084 90.2998 50.2021C90.2822 50.2021 90.2676 50.2051 90.2559 50.2109C90.2441 50.2168 90.2295 50.2197 90.2119 50.2197C90.0771 50.2197 89.9658 50.1699 89.8779 50.0703C89.7959 49.9707 89.7549 49.8623 89.7549 49.7451C89.7549 49.6396 89.7871 49.543 89.8516 49.4551C89.9219 49.3672 90.0098 49.3145 90.1152 49.2969C90.3203 49.25 90.5254 49.2148 90.7305 49.1914C90.9414 49.1621 91.1465 49.1328 91.3457 49.1035V42.3711C90.9766 42.3535 90.666 42.3301 90.4141 42.3008C90.1621 42.2715 90.0215 42.2568 89.9922 42.2568C89.875 42.2393 89.7783 42.1865 89.7021 42.0986C89.6318 42.0107 89.5967 41.9082 89.5967 41.791C89.5967 41.6445 89.6494 41.5332 89.7549 41.457C89.8604 41.3809 89.9629 41.3428 90.0625 41.3428H90.1152C90.1211 41.3428 90.1885 41.3516 90.3174 41.3691C90.4463 41.3809 90.6133 41.3955 90.8184 41.4131C91.0293 41.4307 91.2666 41.4482 91.5303 41.4658C91.7939 41.4775 92.0664 41.4834 92.3477 41.4834C92.6289 41.4834 92.9043 41.4746 93.1738 41.457C93.4434 41.4336 93.6895 41.3955 93.9121 41.3428H94.0088C94.1436 41.3428 94.2549 41.3896 94.3428 41.4834C94.4307 41.5713 94.4746 41.6738 94.4746 41.791L94.457 49.1035C94.6621 49.1328 94.8672 49.1621 95.0723 49.1914C95.2832 49.2148 95.4971 49.25 95.7139 49.2969C95.8252 49.3145 95.916 49.3672 95.9863 49.4551C96.0566 49.543 96.0918 49.6396 96.0918 49.7451C96.0918 49.8799 96.042 49.9912 95.9424 50.0791C95.8428 50.1729 95.7373 50.2197 95.626 50.2197ZM94.3516 38.6621C94.3516 38.8789 94.3105 39.084 94.2285 39.2773C94.1465 39.4648 94.0322 39.6289 93.8857 39.7695C93.7451 39.9102 93.5781 40.0215 93.3848 40.1035C93.1973 40.1855 92.9951 40.2266 92.7783 40.2266C92.5615 40.2266 92.3564 40.1855 92.1631 40.1035C91.9756 40.0215 91.8115 39.9102 91.6709 39.7695C91.5303 39.6289 91.4189 39.4648 91.3369 39.2773C91.2549 39.084 91.2139 38.8789 91.2139 38.6621C91.2139 38.4453 91.2549 38.2432 91.3369 38.0557C91.4189 37.8623 91.5303 37.6953 91.6709 37.5547C91.8115 37.4141 91.9756 37.3027 92.1631 37.2207C92.3564 37.1387 92.5615 37.0977 92.7783 37.0977C92.9951 37.0977 93.1973 37.1387 93.3848 37.2207C93.5781 37.3027 93.7451 37.4141 93.8857 37.5547C94.0322 37.6953 94.1465 37.8623 94.2285 38.0557C94.3105 38.2432 94.3516 38.4453 94.3516 38.6621ZM112.22 49.9648H112.158C111.941 49.9355 111.725 49.915 111.508 49.9033C111.291 49.8857 111.065 49.877 110.831 49.877C110.55 49.877 110.248 49.8916 109.926 49.9209C109.604 49.9443 109.24 49.9883 108.836 50.0527H108.757C108.634 50.0527 108.528 50.0088 108.44 49.9209C108.353 49.8271 108.309 49.7217 108.309 49.6045C108.309 49.4873 108.344 49.3848 108.414 49.2969C108.49 49.209 108.581 49.1562 108.687 49.1387C108.95 49.1035 109.199 49.0713 109.434 49.042C109.668 49.0127 109.888 48.9893 110.093 48.9717C110.134 48.7666 110.181 48.4912 110.233 48.1455C110.292 47.7998 110.345 47.4336 110.392 47.0469C110.438 46.6543 110.477 46.2617 110.506 45.8691C110.541 45.4707 110.559 45.1191 110.559 44.8145C110.559 44.5273 110.541 44.2344 110.506 43.9355C110.471 43.6309 110.4 43.3555 110.295 43.1094C110.189 42.8633 110.037 42.6641 109.838 42.5117C109.645 42.3535 109.387 42.2744 109.064 42.2744C108.654 42.2744 108.3 42.3594 108.001 42.5293C107.708 42.6992 107.456 42.9102 107.245 43.1621C107.034 43.4082 106.861 43.6748 106.727 43.9619C106.598 44.249 106.495 44.5098 106.419 44.7441C106.419 45.2129 106.401 45.6582 106.366 46.0801C106.349 46.3379 106.325 46.6045 106.296 46.8799C106.267 47.1494 106.237 47.4131 106.208 47.6709C106.179 47.9229 106.149 48.1631 106.12 48.3916C106.091 48.6143 106.064 48.8076 106.041 48.9717C106.223 48.9717 106.407 48.9805 106.595 48.998C106.788 49.0098 106.987 49.0244 107.192 49.042C107.321 49.0537 107.421 49.1035 107.491 49.1914C107.567 49.2793 107.605 49.3818 107.605 49.499C107.605 49.6396 107.559 49.7539 107.465 49.8418C107.371 49.9238 107.269 49.9648 107.157 49.9648H107.104C106.858 49.9355 106.627 49.918 106.41 49.9121C106.193 49.9004 105.979 49.8945 105.769 49.8945C105.464 49.8945 105.156 49.9092 104.846 49.9385C104.541 49.9619 104.207 50 103.844 50.0527H103.773C103.645 50.0527 103.536 50.0088 103.448 49.9209C103.366 49.8271 103.325 49.7217 103.325 49.6045C103.325 49.4873 103.36 49.3848 103.431 49.2969C103.507 49.209 103.604 49.1562 103.721 49.1387C103.973 49.1035 104.21 49.0742 104.433 49.0508C104.655 49.0215 104.881 49.001 105.109 48.9893C105.133 48.8428 105.159 48.6582 105.188 48.4355C105.218 48.207 105.247 47.958 105.276 47.6885C105.312 47.4189 105.344 47.1406 105.373 46.8535C105.408 46.5664 105.435 46.2881 105.452 46.0186C105.464 45.8193 105.476 45.6113 105.487 45.3945C105.499 45.1719 105.505 44.9434 105.505 44.709C105.505 44.4277 105.49 44.1436 105.461 43.8564C105.432 43.5693 105.367 43.3086 105.268 43.0742C105.168 42.8398 105.024 42.6494 104.837 42.5029C104.655 42.3506 104.409 42.2744 104.099 42.2744C103.806 42.2744 103.536 42.3418 103.29 42.4766C103.044 42.6055 102.821 42.7725 102.622 42.9775C102.423 43.1768 102.247 43.3994 102.095 43.6455C101.948 43.8857 101.822 44.1201 101.717 44.3486C101.611 44.5713 101.526 44.7705 101.462 44.9463C101.403 45.1162 101.365 45.2334 101.348 45.2979L101.33 49.1387C101.436 49.1504 101.538 49.1621 101.638 49.1738C101.737 49.1855 101.837 49.1973 101.937 49.209C102.054 49.2266 102.15 49.2793 102.227 49.3672C102.309 49.4551 102.35 49.5576 102.35 49.6748C102.35 49.8037 102.3 49.9121 102.2 50C102.106 50.082 102.001 50.123 101.884 50.123H101.831C101.479 50.0762 101.119 50.0381 100.75 50.0088C100.387 49.9795 100.003 49.9648 99.5986 49.9648C99.2354 49.9648 98.8516 49.9795 98.4473 50.0088C98.0488 50.0439 97.6211 50.1084 97.1641 50.2021C97.1465 50.2021 97.1318 50.2051 97.1201 50.2109C97.1084 50.2168 97.0938 50.2197 97.0762 50.2197C96.9414 50.2197 96.833 50.1699 96.751 50.0703C96.6689 49.9707 96.6279 49.8623 96.6279 49.7451C96.6279 49.6396 96.6602 49.543 96.7246 49.4551C96.7891 49.3672 96.877 49.3145 96.9883 49.2969C97.2051 49.25 97.4131 49.2148 97.6123 49.1914C97.8115 49.1621 98.0107 49.1387 98.21 49.1211V42.5469C97.8408 42.5293 97.5303 42.5088 97.2783 42.4854C97.0322 42.4561 96.8945 42.4414 96.8652 42.4414C96.748 42.4238 96.6514 42.3711 96.5752 42.2832C96.5049 42.1953 96.4697 42.0928 96.4697 41.9756C96.4697 41.8291 96.5225 41.7178 96.6279 41.6416C96.7334 41.5596 96.8359 41.5186 96.9355 41.5186H96.9883C96.9941 41.5186 97.0615 41.5273 97.1904 41.5449C97.3193 41.5566 97.4863 41.5742 97.6914 41.5977C97.9023 41.6152 98.1396 41.6328 98.4033 41.6504C98.667 41.6621 98.9395 41.668 99.2207 41.668C99.502 41.668 99.7773 41.6592 100.047 41.6416C100.316 41.6182 100.562 41.5771 100.785 41.5186H100.873C101.008 41.5186 101.119 41.5654 101.207 41.6592C101.301 41.7529 101.348 41.8584 101.348 41.9756V43.127C101.488 42.8984 101.649 42.6787 101.831 42.4678C102.019 42.2568 102.227 42.0693 102.455 41.9053C102.684 41.7412 102.936 41.6094 103.211 41.5098C103.486 41.4102 103.782 41.3604 104.099 41.3604C104.38 41.3604 104.635 41.4014 104.863 41.4834C105.092 41.5654 105.294 41.6826 105.47 41.835C105.651 41.9814 105.807 42.1572 105.936 42.3623C106.064 42.5674 106.167 42.79 106.243 43.0303C106.372 42.8311 106.524 42.6318 106.7 42.4326C106.882 42.2334 107.087 42.0547 107.315 41.8965C107.55 41.7383 107.811 41.6094 108.098 41.5098C108.391 41.4102 108.713 41.3604 109.064 41.3604C109.557 41.3604 109.958 41.4658 110.269 41.6768C110.585 41.8877 110.834 42.1572 111.016 42.4854C111.197 42.8135 111.323 43.1826 111.394 43.5928C111.464 44.0029 111.499 44.4043 111.499 44.7969C111.499 45.1074 111.481 45.4561 111.446 45.8428C111.417 46.2236 111.379 46.6045 111.332 46.9854C111.285 47.3662 111.235 47.7324 111.183 48.084C111.136 48.4297 111.092 48.7197 111.051 48.9541C111.268 48.9541 111.476 48.9629 111.675 48.9805C111.874 48.9922 112.073 49.0127 112.272 49.042C112.39 49.0537 112.486 49.1035 112.562 49.1914C112.645 49.2793 112.686 49.3818 112.686 49.499C112.686 49.6221 112.636 49.7305 112.536 49.8242C112.442 49.918 112.337 49.9648 112.22 49.9648ZM121.501 45.3594V45.21C121.501 44.7705 121.454 44.3633 121.36 43.9883C121.267 43.6133 121.117 43.2822 120.912 42.9951C120.713 42.7021 120.455 42.4619 120.139 42.2744C119.822 42.0869 119.441 41.9609 118.996 41.8965C118.686 41.9316 118.416 42.0166 118.188 42.1514C117.959 42.2861 117.763 42.4531 117.599 42.6523C117.44 42.8457 117.309 43.0654 117.203 43.3115C117.098 43.5576 117.013 43.8125 116.948 44.0762C116.89 44.334 116.846 44.5947 116.816 44.8584C116.787 45.1162 116.77 45.3594 116.764 45.5879C116.857 45.6172 116.975 45.6494 117.115 45.6846C117.262 45.7197 117.426 45.7549 117.607 45.79C117.789 45.8193 117.985 45.8457 118.196 45.8691C118.413 45.8867 118.639 45.8955 118.873 45.8955C119.371 45.8955 119.837 45.8486 120.271 45.7549C120.71 45.6611 121.12 45.5293 121.501 45.3594ZM122.397 45.7021C122.38 45.8545 122.298 45.9863 122.151 46.0977C122.005 46.209 121.82 46.3086 121.598 46.3965C121.375 46.4785 121.129 46.5488 120.859 46.6074C120.596 46.6602 120.335 46.7041 120.077 46.7393C119.819 46.7744 119.582 46.8008 119.365 46.8184C119.148 46.8301 118.979 46.8359 118.855 46.8359C118.428 46.8359 118.032 46.8066 117.669 46.748C117.312 46.6895 117.016 46.6279 116.781 46.5635C116.816 46.9268 116.884 47.2842 116.983 47.6357C117.083 47.9873 117.227 48.3037 117.414 48.585C117.602 48.8604 117.836 49.0859 118.117 49.2617C118.398 49.4316 118.738 49.5166 119.137 49.5166C119.283 49.5166 119.45 49.499 119.638 49.4639C119.825 49.4229 120.01 49.3672 120.191 49.2969C120.373 49.2207 120.54 49.1328 120.692 49.0332C120.845 48.9277 120.965 48.8105 121.053 48.6816C121.152 48.5645 121.272 48.5059 121.413 48.5059C121.536 48.5059 121.645 48.5557 121.738 48.6553C121.832 48.749 121.879 48.8545 121.879 48.9717C121.879 49.0947 121.841 49.1914 121.765 49.2617C121.624 49.4785 121.428 49.6631 121.176 49.8154C120.924 49.9678 120.651 50.0908 120.358 50.1846C120.065 50.2842 119.77 50.3545 119.471 50.3955C119.172 50.4424 118.899 50.4658 118.653 50.4658C117.95 50.4658 117.297 50.3398 116.693 50.0879C116.09 49.8418 115.565 49.502 115.12 49.0684C114.675 48.6348 114.323 48.125 114.065 47.5391C113.813 46.9531 113.688 46.3203 113.688 45.6406C113.688 44.8965 113.799 44.2344 114.021 43.6543C114.244 43.0684 114.561 42.5762 114.971 42.1777C115.381 41.7734 115.879 41.4688 116.465 41.2637C117.051 41.0527 117.71 40.9473 118.442 40.9473C119.134 40.9766 119.729 41.0938 120.227 41.2988C120.73 41.5039 121.144 41.7881 121.466 42.1514C121.788 42.5146 122.025 42.9541 122.178 43.4697C122.336 43.9795 122.415 44.5537 122.415 45.1924C122.415 45.3389 122.412 45.4561 122.406 45.5439C122.4 45.626 122.397 45.6787 122.397 45.7021Z" fill="#2D3748"/>
<path d="M65.9717 45.2275H61.6826V43.9004H65.9717V45.2275Z" fill="#C53030"/>
<path d="M125 8C124.151 7.96378 134.254 3.81686 132 8C129.746 12.1831 130.294 43.4257 132 65C129.742 63.5132 123.156 69.0395 125 65C126.844 60.9605 125.849 8.03622 125 8Z" fill="#C53030"/>
<path d="M131 7.99994C141.004 9.00679 147.71 9.04363 162 7.99994C159.787 10.3426 159.908 11.6576 162 13.9999C147.965 12.4611 141.639 12.8288 131 13.9999V7.99994Z" fill="#C53030"/>
<path d="M130 31C137.884 31.7889 142.587 31.9168 152 31C150.657 33.3003 150.912 34.6415 152 37C143.018 35.8524 138.225 35.9231 130 37V31Z" fill="#C53030"/>
<path d="M136.342 36.1045L126.826 30.3617L139.722 8.99092C139.722 8.99092 161.689 11.9165 149.238 14.7338C136.788 17.551 128.984 22.7082 136.342 36.1045Z" fill="#C53030"/>
<rect x="130" y="12" width="7" height="5" fill="#C53030"/>
<rect x="130" y="16" width="5" height="5" fill="#C53030"/>
<rect x="130" y="20" width="3" height="5" fill="#C53030"/>
<path d="M151 11.2127C151 11.2127 161 10.9254 159 11.2127C157 11.5001 162 7.92541 159 14.2127C156 20.5001 157.5 12.2127 151 14.2127C144.5 16.2127 151 11.2127 151 11.2127Z" fill="#C53030"/>
</svg>
